<svg width="7" height="25" viewBox="0 0 7 25" fill="none" xmlns="http://www.w3.org/2000/svg">
<path d="M3.08333 24.6667C2.23542 24.6667 1.50955 24.3648 0.905729 23.7609C0.30191 23.1571 0 22.4312 0 21.5833C0 20.7354 0.30191 20.0095 0.905729 19.4057C1.50955 18.8019 2.23542 18.5 3.08333 18.5C3.93125 18.5 4.65712 18.8019 5.26094 19.4057C5.86476 20.0095 6.16667 20.7354 6.16667 21.5833C6.16667 22.4312 5.86476 23.1571 5.26094 23.7609C4.65712 24.3648 3.93125 24.6667 3.08333 24.6667ZM3.08333 15.4167C2.23542 15.4167 1.50955 15.1148 0.905729 14.5109C0.30191 13.9071 0 13.1812 0 12.3333C0 11.4854 0.30191 10.7595 0.905729 10.1557C1.50955 9.55191 2.23542 9.25 3.08333 9.25C3.93125 9.25 4.65712 9.55191 5.26094 10.1557C5.86476 10.7595 6.16667 11.4854 6.16667 12.3333C6.16667 13.1812 5.86476 13.9071 5.26094 14.5109C4.65712 15.1148 3.93125 15.4167 3.08333 15.4167ZM3.08333 6.16667C2.23542 6.16667 1.50955 5.86476 0.905729 5.26094C0.30191 4.65712 0 3.93125 0 3.08333C0 2.23542 0.30191 1.50955 0.905729 0.905729C1.50955 0.30191 2.23542 0 3.08333 0C3.93125 0 4.65712 0.30191 5.26094 0.905729C5.86476 1.50955 6.16667 2.23542 6.16667 3.08333C6.16667 3.93125 5.86476 4.65712 5.26094 5.26094C4.65712 5.86476 3.93125 6.16667 3.08333 6.16667Z" fill="black"/>
</svg>
